# xmcd
#
# Track frame offsets:
#	150
#	11752
#	26392
#	42385
#	54931
#	69444
#	84535
#	96361
#	108716
#	123420
#	136154
#	146892
#	161656
#	176013
#	188159
#	198430
#	209938
#	222219
#	236097
#	246792
#
# Disc length: 3420 seconds
#
# Revision: 1
# Processed by: cddbd v1.5.2PL0 Copyright (c) Steve Scherf et al.
# Submitted via: EZCDAudioConverter 2.1.7.1
#
DISCID=2d0d5a14
DTITLE=V/A - Treasure Isle Presents: Rock Steady 2/2
DYEAR=1967
DGENRE=
TTITLE0=Alton Ellis and The Flames - Why Birds Follow Spring
TTITLE1=The Melodians - You Have Caught Me
TTITLE2=The Techniques - Queen Majesty
TTITLE3=The Paragons - The Same Song
TTITLE4=Tommy McCook and The Supersonics - Soul Serenade
TTITLE5=The Jamaicans - Ba Ba Boom (Festival Song 1967)
TTITLE6=The Paragons - Wear You To The Ball
TTITLE7=Freddie McKay - Love Is A Treasure
TTITLE8=Vic Taylor - Heartaches
TTITLE9=Justin Hinds and The Dominoes - Once A Man (Twice A Child)
TTITLE10=The Melodians - Come On Little Girl
TTITLE11=Dobby Dobson - I'm A Loving Pauper
TTITLE12=The Melodians - Last Train To Expo '67
TTITLE13=The Silvertones - In The Midnight Hour
TTITLE14=Alton Ellis and The Flames - Oo Wee Baby
TTITLE15=The Techniques - Travelling Man
TTITLE16=Alton Ellis - My Willow Tree
TTITLE17=Joya Landis - Angel Of The Morning
TTITLE18=The Techniques - I Wish It Would Rain
TTITLE19=John Holt and Joya Landis - I'll Be Lonely
EXTD=
EXTT0=
EXTT1=
EXTT2=
EXTT3=
EXTT4=
EXTT5=
EXTT6=
EXTT7=
EXTT8=
EXTT9=
EXTT10=
EXTT11=
EXTT12=
EXTT13=
EXTT14=
EXTT15=
EXTT16=
EXTT17=
EXTT18=
EXTT19=
PLAYORDER=
